<svg width="39" height="43" viewBox="0 0 39 43" fill="none" xmlns="http://www.w3.org/2000/svg">
<path d="M37.2555 23.0279C35.9124 21.9048 34.1686 21.6808 32.9238 21.6942C32.9209 21.4388 32.9136 21.2939 32.9132 21.2939C32.9132 17.7997 25.6037 15.7446 18.2354 15.4762C17.8004 14.4915 17.1892 13.5947 16.4322 12.8296C13.8827 10.2297 10.293 9.60121 8.42909 11.4291C7.26061 12.573 6.99473 14.3923 7.67043 16.3047C2.79417 17.3518 0.0149206 19.1494 0.0158194 21.26C-0.00620305 21.6957 -0.451764 32.0053 5.40078 38.1602C8.17178 41.0739 11.8939 42.553 16.4639 42.553C22.2935 42.553 26.6886 40.1768 29.5459 35.4987H29.5721H29.6493C32.3996 35.3835 38.9941 32.7992 38.9941 27.0846L38.9945 27.0842C39.0669 25.5372 38.426 24.0423 37.2553 23.0279L37.2555 23.0279ZM32.7125 25.4773C33.3668 25.4406 34.3367 25.5066 34.8302 25.9203C34.9275 26.0029 35.2246 26.2548 35.2246 27.0862C35.2246 29.157 33.1172 30.5029 31.5 31.1744C32.0927 29.3204 32.4987 27.4121 32.7125 25.4773ZM9.60419 19.4L9.6693 19.4658C9.84899 19.6486 10.0354 19.8203 10.2243 19.9841C10.2853 20.0361 10.3469 20.0843 10.4072 20.1347C10.539 20.2426 10.6718 20.347 10.8068 20.4459C10.8793 20.4979 10.9514 20.5484 11.0242 20.5982C11.1554 20.6898 11.2881 20.7731 11.4222 20.8538C11.4937 20.8969 11.5645 20.9406 11.6363 20.9815C11.7914 21.0693 11.9478 21.1491 12.1049 21.2244C12.1543 21.2483 12.2029 21.2751 12.2523 21.2975C12.4572 21.3907 12.6625 21.4733 12.8683 21.5455C12.9261 21.5656 12.9835 21.5806 13.0413 21.5994C13.1913 21.6479 13.341 21.691 13.4901 21.7299C13.5657 21.7488 13.6407 21.7638 13.716 21.7797C13.8491 21.8075 13.9819 21.8314 14.1137 21.8503C14.1897 21.8611 14.2653 21.8717 14.3403 21.8796C14.4776 21.8937 14.6148 21.9007 14.752 21.9042C14.7977 21.9042 14.8491 21.9135 14.8963 21.9135C14.9171 21.9135 14.9372 21.9112 14.9576 21.9106C14.9991 21.9106 15.0396 21.9074 15.0808 21.9061C15.1989 21.9017 15.3154 21.8934 15.4309 21.8806C15.4766 21.8755 15.5225 21.8701 15.5714 21.8634C15.6898 21.8464 15.8059 21.8244 15.9208 21.7982C15.9543 21.7909 15.9882 21.7855 16.0214 21.7769L16.0211 21.7772C16.1653 21.7411 16.307 21.6967 16.4462 21.6444C16.4736 21.6339 16.4992 21.6211 16.5263 21.6099C16.6361 21.5659 16.743 21.5171 16.8467 21.4631C16.8879 21.4417 16.9281 21.4175 16.9683 21.3958C17.0599 21.3437 17.148 21.2869 17.2345 21.2269C17.2706 21.2017 17.3073 21.1781 17.3421 21.1513V21.1516C17.4602 21.0638 17.5722 20.9684 17.6779 20.866C17.7947 20.7491 17.9032 20.624 18.0028 20.4919C18.0257 20.4622 18.0484 20.4319 18.0704 20.4003C18.1662 20.2678 18.2527 20.1293 18.3296 19.9854C18.3379 19.9694 18.3446 19.9525 18.3529 19.9365V19.9362C18.4225 19.798 18.4834 19.6557 18.5358 19.5098C18.5466 19.4795 18.5581 19.4498 18.5683 19.4182V19.4185C18.6229 19.2554 18.6673 19.0888 18.7005 18.92C18.7005 18.9114 18.7056 18.9034 18.7069 18.8948C25.3414 19.2184 29.0019 20.8621 29.0019 21.9205C29.0019 22.1898 28.7162 22.5208 28.1944 22.8544C26.1849 24.1556 21.581 24.996 16.4646 24.996C11.3482 24.996 6.74477 24.1553 4.73315 22.8537C4.21578 22.5221 3.93204 22.1911 3.93204 21.9211C3.93204 21.2991 5.45096 20.1321 9.60428 19.4001L9.60419 19.4ZM11.2058 11.7505C12.5415 11.7505 14.1629 12.4786 15.4507 13.7916L15.4504 13.7919C16.1826 14.5257 16.75 15.4069 17.1152 16.3768C17.3268 16.9475 17.427 17.5533 17.4101 18.1613C17.4069 18.7811 17.1742 19.378 16.7567 19.836C16.7567 19.8213 16.7567 19.8063 16.7526 19.7903C16.7255 19.5261 16.6824 19.2637 16.6233 19.0049C16.4877 18.4671 16.2668 17.9548 15.9694 17.4869C15.6649 17.0111 15.2915 16.5824 14.8613 16.216C14.4246 15.8486 13.9385 15.5438 13.4177 15.3108C12.6223 14.9578 11.8875 14.4813 11.2409 13.8989C10.8978 13.5899 10.5774 13.2564 10.2827 12.9008C10.1241 12.7256 9.98081 12.5188 9.8142 12.3132C9.7759 12.2676 9.73537 12.2191 9.69675 12.1718V12.1722C10.1468 11.8836 10.6731 11.7362 11.2077 11.7489L11.2058 11.7505ZM9.34191 12.4684C9.34191 12.4811 9.34415 12.4945 9.34542 12.5073C9.37383 12.7712 9.41787 13.0333 9.47756 13.2918C9.61288 13.8296 9.83375 14.3421 10.1315 14.8098C10.436 15.2863 10.8094 15.7146 11.24 16.081C11.6772 16.4481 12.164 16.7522 12.6854 16.9843C13.4814 17.3354 14.2165 17.8112 14.8631 18.3934C15.2062 18.7027 15.5266 19.0365 15.8213 19.3924C15.9799 19.5677 16.1222 19.7748 16.2888 19.9803C16.3287 20.0292 16.3702 20.0777 16.4111 20.1268C15.0157 21.0598 12.4927 20.3819 10.6459 18.4984C10.5511 18.4033 10.4605 18.3041 10.3715 18.2038L10.3711 18.2035C9.91792 17.6948 9.53814 17.1251 9.24285 16.5106C8.46759 14.916 8.5126 13.342 9.34339 12.4668L9.34191 12.4684ZM16.4645 41.1801C12.2875 41.1801 8.90151 39.8475 6.39818 37.2205C0.951942 31.4962 1.3818 21.429 1.38793 21.2942C1.38793 20.1289 3.51614 18.5529 8.2535 17.5829C8.25701 17.59 8.26212 17.5957 8.26595 17.6027C8.37766 17.8009 8.49894 17.9956 8.62756 18.1871C5.97373 18.7284 2.55953 19.8315 2.55953 21.9214C2.55953 22.696 3.04147 23.3978 3.98907 24.0074C6.23887 25.4634 11.0194 26.3686 16.4641 26.3686C21.9087 26.3686 26.6896 25.4634 28.9358 24.0093C29.8898 23.3997 30.3733 22.6969 30.3733 21.921C30.3733 19.2588 24.6468 17.8152 18.7677 17.5247C18.7645 17.4839 18.7549 17.4414 18.7505 17.4006C18.7348 17.2563 18.7157 17.1114 18.6885 16.964C18.6822 16.9311 18.6812 16.8995 18.6745 16.866C26.4105 17.2234 31.54 19.3932 31.5417 21.3314C31.5417 21.3356 31.5627 21.7304 31.5458 22.3971V22.4054C31.5458 22.4938 31.5385 22.5825 31.5362 22.6706C31.5228 23.174 31.4948 23.6773 31.4552 24.1806C31.4392 24.3813 31.4274 24.5834 31.4067 24.7832V24.7835C31.1868 27.2608 30.6266 29.6958 29.7416 32.0202C29.5785 32.4326 29.4029 32.8351 29.2153 33.2276C29.2101 33.2382 29.2057 33.249 29.2006 33.2595C29.011 33.6559 28.8109 34.0409 28.5999 34.414C28.5967 34.4191 28.5957 34.4245 28.5929 34.4296C26.0086 38.9081 21.9284 41.1796 16.4643 41.1796L16.4645 41.1801ZM30.3505 34.0393C30.361 34.0173 30.3703 33.9937 30.3808 33.972C30.541 33.6407 30.6946 33.3001 30.8417 32.9503C30.8564 32.9165 30.8733 32.8839 30.8873 32.8498C33.0424 32.23 36.5979 30.3711 36.5979 27.0873C36.656 26.2529 36.3311 25.4378 35.7154 24.8723C34.892 24.179 33.6533 24.0807 32.8441 24.1018C32.8492 24.0335 32.8512 23.9646 32.8556 23.8972C32.8671 23.7261 32.8757 23.556 32.884 23.3846C32.8891 23.279 32.8974 23.1737 32.9013 23.068C33.9226 23.0473 35.3381 23.2148 36.3745 24.081C37.2295 24.8387 37.6898 25.9469 37.6227 27.0873C37.6227 31.2801 32.877 33.567 30.3505 34.0393Z" fill="black"/>
<path d="M24.6106 0.00530331C22.9359 0.117331 21.3321 0.725662 20.0044 1.75309C16.9809 4.00705 15.837 7.60149 17.4517 9.76574C18.3074 10.8359 19.6262 11.4277 20.9941 11.3555C21.0803 11.3555 21.1661 11.3555 21.2539 11.3504H21.2542C22.9282 11.2381 24.5308 10.6294 25.8576 9.60204C28.8775 7.34808 30.0249 3.75364 28.4106 1.58972C27.6012 0.503265 26.2626 -0.0616962 24.6106 0.00530331ZM20.8243 2.85319C21.9309 1.99045 23.2688 1.4766 24.668 1.37642C24.7357 1.37355 24.8053 1.37227 24.8694 1.37227H24.8691C25.7908 1.31004 26.6877 1.68474 27.2915 2.38372L27.2031 2.38149V2.38117C26.9283 2.37542 26.6532 2.38564 26.3797 2.41213C25.8093 2.48043 25.2534 2.63873 24.7325 2.88099C24.2033 3.12865 23.7134 3.45293 23.2784 3.84325C22.8417 4.24157 22.4626 4.69831 22.1514 5.20064C21.6739 5.97494 21.0751 6.66752 20.3774 7.25099C20.0085 7.55962 19.6169 7.84081 19.2064 8.09167C19.0025 8.22891 18.7685 8.34509 18.5333 8.48456C18.4701 8.52222 18.4075 8.5618 18.3447 8.60042C17.5672 7.02217 18.6188 4.49884 20.8243 2.85319ZM25.0386 8.50215C23.9333 9.36456 22.5966 9.87841 21.1984 9.97859C20.0459 10.0242 19.1123 9.6674 18.5757 8.97196L18.6635 8.97483C18.9383 8.9809 19.2131 8.97068 19.4869 8.94451C20.0573 8.87653 20.6136 8.71822 21.1342 8.47565C21.6637 8.22702 22.1539 7.90179 22.5886 7.51053C23.0249 7.11285 23.4035 6.65613 23.714 6.15404C24.1895 5.37846 24.7882 4.68553 25.486 4.10181C25.855 3.79286 26.2469 3.51167 26.6577 3.26113C26.8623 3.12389 27.0959 3.00868 27.3311 2.86856C27.3943 2.83153 27.4569 2.79228 27.5198 2.75366C28.2976 4.33134 27.2453 6.85592 25.0386 8.50215Z" fill="#E06F2C"/>
</svg>
